<?xml version="1.0" encoding="iso-8859-1"?>
<!-- Generator: Adobe Illustrator 19.0.0, SVG Export Plug-In . SVG Version: 6.00 Build 0)  -->
<svg version="1.1" id="Layer_1" xmlns="http://www.w3.org/2000/svg" xmlns:xlink="http://www.w3.org/1999/xlink" x="0px" y="0px"
	 viewBox="0 0 512 512" style="enable-background:new 0 0 512 512;" xml:space="preserve">
<polygon style="fill:#FF705B;" points="216.27,154.856 223.676,126.616 212.893,122.922 191.625,90.409 204.831,87.175 
	198.07,75.308 217.621,35.173 201.759,25.623 165.951,27.517 121.955,8.228 99.209,21.845 114.604,35.34 115.394,67.13 
	140.251,94.198 120.088,130.545 119.966,137.061 94.847,164.667 168.039,175.637 239.25,164.667 "/>
<polygon style="fill:#42A555;" points="191.384,320.146 108.121,331.116 129.381,388.577 172.002,503.773 188.497,497.473 
	192.519,489.578 198.753,481.967 212.887,465.016 220.342,423.085 215.548,408.618 224.849,380.5 235.221,374.106 244.872,372.967 
	255.95,357.866 264.978,354.099 278.123,340.948 282.208,331.116 "/>
<path style="fill:#427451;" d="M129.381,388.577l42.62,115.195l16.495-6.3l4.023-7.895l6.234-7.611l14.134-16.951l7.456-41.93
	l-4.795-14.467l9.3-28.118l10.373-6.394l9.65-1.139l11.079-15.101l9.028-3.767l13.145-13.151l4.085-9.832h-57.915
	C198.095,357.324,165.65,377.286,129.381,388.577z"/>
<polygon style="fill:#FF705B;" points="414.102,276.468 413.534,275.725 413.397,276.59 "/>
<path style="fill:#D1D1D1;" d="M470.137,164.667l-8.91-13.121l-30.985,0.812l-4.112,6.156l-9.616,6.154l-23.98,15.347l-1.394,14.94
	h-22.895l-26.802-21.835l-13.562,29.385l-36.581-15.617c-4.702,56.157-29.416,106.625-67.007,144.229h57.915l1.948-4.691
	l31.785-17.467l1.856-14.995l16.639-12.728l18.329,3.65l-15.89-58.363l27.874-11.555l15.428,10.082l22.273,2.445l-17.405,25.732
	l10.861-0.533l17.628,23.031l5.246-33.043l15.25,2.922l4.795-30.102l5.217-6.884l1.339-10.067l28.99-10.073l2.839-13.395
	L470.137,164.667z"/>
<path style="fill:#42A555;" d="M224.294,331.116H108.122l21.26,57.461C165.65,377.286,198.095,357.324,224.294,331.116z"/>
<path style="fill:#E6E6E6;" d="M94.847,164.667l-10.912,11.991l-20.445-6.55l-8.484,24.879l5.912,4.523l12.778,26.151l0.212,12.685
	l-39.119,14.023l24.779,12.139l-13.361,6.989l12.545,18.684l20.351,10.04l21.912-28.724l-0.439,14.934l7.411,17.562l-3.361,17.679
	l3.495,9.446h116.172c37.591-37.605,62.305-88.072,67.007-144.229l-52.051-22.221H94.847V164.667z"/>
<path d="M484.018,170.463l-15.984-23.539c-1.575-2.318-4.217-3.677-7.022-3.603l-30.985,0.811c-2.672,0.07-5.143,1.433-6.627,3.655
	l-3.155,4.725L388.1,173.085c-2.135,1.367-3.521,3.641-3.757,6.165l-0.698,7.477h-12.474l-24.531-19.986
	c-1.972-1.606-4.578-2.209-7.051-1.637c-2.478,0.574-4.55,2.26-5.615,4.569l-10.213,22.127l-97.731-41.722l5.606-21.373
	c1.093-4.169-1.214-8.474-5.292-9.871l-8.112-2.78l-13.356-20.421l1.913-0.468c2.507-0.614,4.58-2.368,5.599-4.739
	c1.021-2.371,0.87-5.082-0.408-7.325l-4.612-8.095l17.65-36.232c1.867-3.832,0.498-8.455-3.153-10.652l-15.863-9.55
	c-1.407-0.847-3.029-1.258-4.679-1.167l-33.854,1.79L125.259,0.692c-2.436-1.068-5.244-0.893-7.53,0.476L94.983,14.785
	c-2.257,1.35-3.731,3.699-3.968,6.319s0.793,5.193,2.77,6.928l12.683,11.118l0.7,28.185c0.049,1.99,0.819,3.894,2.165,5.361
	l20.845,22.699l-17.285,31.159c-0.653,1.176-1.006,2.492-1.031,3.837l-0.065,3.424l-30.387,33.396l-15.409-4.936
	c-4.267-1.367-8.849,0.936-10.297,5.18l-8.483,24.879c-1.14,3.344-0.019,7.043,2.787,9.19l4.37,3.344l11.122,22.763l0.083,4.961
	l-33.572,12.034c-3.112,1.116-5.254,3.985-5.438,7.287s1.626,6.392,4.594,7.847l10.272,5.032c-1.474,1.048-2.578,2.563-3.11,4.327
	c-0.714,2.361-0.331,4.919,1.044,6.967l12.545,18.684c0.801,1.194,1.901,2.157,3.19,2.792l20.351,10.039
	c3.531,1.741,7.795,0.739,10.181-2.388l8.967-11.753l4.829,11.443l-2.897,15.235c-0.28,1.47-0.152,2.988,0.366,4.391l67.375,182.103
	c1.18,3.189,4.314,5.372,7.716,5.372c0.994,0,1.989-0.18,2.936-0.542l16.495-6.3c1.903-0.727,3.47-2.135,4.396-3.951l3.62-7.104
	l5.625-6.869l14.134-16.951c0.916-1.099,1.53-2.419,1.78-3.829l7.456-41.929c0.24-1.346,0.14-2.73-0.291-4.028l-3.938-11.883
	l7.505-22.685l6.273-3.867l7.845-0.926c2.266-0.268,4.32-1.463,5.669-3.304l9.725-13.256c3.284-1.371,7.145-2.423,9.787-4.883
	c3.121-2.906,6.049-6.051,9.063-9.067c2.41-2.41,4.739-4.433,6.095-7.618c1.523-3.574,2.982-7.177,4.472-10.765l29.257-16.078
	c2.315-1.273,3.878-3.578,4.203-6.2l1.432-11.569l10.941-8.369l14.679,2.923c2.791,0.555,5.678-0.373,7.622-2.456
	s2.672-5.025,1.923-7.774l-13.987-51.376l17.169-7.117l11.792,7.705c1.083,0.708,2.317,1.15,3.603,1.291l8.712,0.957l-9.762,14.434
	c-1.746,2.582-1.885,5.928-0.355,8.644c1.528,2.716,4.44,4.342,7.573,4.183l6.436-0.316l14.874,20.32
	c1.961,2.68,5.34,3.92,8.572,3.137c3.228-0.78,5.671-3.427,6.193-6.707l4.051-25.518l6.909,1.324
	c2.185,0.416,4.451-0.066,6.274-1.346c1.822-1.279,3.049-3.242,3.4-5.441l4.471-28.067l3.973-5.243
	c0.86-1.135,1.411-2.474,1.598-3.886l0.67-5.043l24.203-8.41c2.722-0.946,4.75-3.246,5.348-6.065l2.839-13.395
	C485.724,174.6,485.276,172.315,484.018,170.463z M467.286,182.233l-24.606,8.549c-2.936,1.02-5.046,3.607-5.455,6.687l-1.052,7.914
	l-3.905,5.151c-0.816,1.077-1.355,2.34-1.568,3.676l-3.46,21.717l-6.913-1.325c-2.186-0.417-4.452,0.066-6.275,1.347
	c-1.823,1.28-3.05,3.244-3.4,5.444l-2.286,14.397l-5.823-7.954c-0.663-0.905-1.491-1.651-2.427-2.208l9.147-13.524
	c1.616-2.388,1.863-5.448,0.653-8.065c-1.211-2.617-3.703-4.409-6.569-4.724l-20.317-2.23l-13.782-9.005
	c-2.275-1.488-5.139-1.754-7.652-0.713l-27.874,11.555c-3.824,1.585-5.875,5.766-4.787,9.761l12.397,45.537l-5.291-1.053
	c-2.317-0.463-4.727,0.097-6.605,1.534l-16.639,12.728c-1.755,1.342-2.896,3.333-3.167,5.524l-1.339,10.821l-28.098,15.441
	c-1.637,0.9-2.918,2.329-3.634,4.053l-5.408,13.017l-10.843,10.847l-7.528,3.141c-1.381,0.576-2.58,1.519-3.464,2.726l-8.962,12.216
	l-6.098,0.72c-1.189,0.14-2.334,0.539-3.354,1.167l-10.372,6.394c-1.649,1.016-2.886,2.581-3.494,4.42l-9.301,28.118
	c-0.556,1.68-0.556,3.494,0.001,5.172l4.139,12.49l-6.708,37.728l-12.779,15.328l-6.234,7.611c-0.374,0.456-0.698,0.952-0.965,1.478
	l-2.585,5.074l-5.771,2.204l-63.696-172.16l2.934-15.431c0.303-1.594,0.127-3.242-0.502-4.736l-6.716-15.911l0.387-13.143
	c0.105-3.572-2.108-6.804-5.476-7.997c-3.37-1.196-7.123-0.075-9.289,2.766L76.67,289.846l-12.309-6.073l-5.622-9.546l4.645-2.43
	c2.748-1.437,4.455-4.298,4.412-7.399c-0.041-3.101-1.822-5.915-4.606-7.28l-3.89-1.905l-3.407-1.67l20.795-7.454
	c3.316-1.189,5.508-4.358,5.45-7.882l-0.211-12.683c-0.021-1.206-0.305-2.393-0.835-3.475l-12.778-26.151
	c-0.561-1.146-1.379-2.148-2.393-2.922l-1.214-0.929l3.968-11.638l12.755,4.086c3.067,0.982,6.427,0.086,8.595-2.298l36.03-39.596
	c1.344-1.475,2.104-3.389,2.141-5.383l0.083-4.47l19.17-34.556c1.718-3.098,1.26-6.947-1.134-9.556L123.545,63.84l-0.712-28.704
	c-0.058-2.298-1.074-4.467-2.802-5.983l-6.902-6.051l9.413-5.636L162.65,35.05c1.176,0.516,2.453,0.747,3.739,0.681l33.288-1.761
	l7.252,4.366l-16.253,33.367c-1.19,2.443-1.097,5.315,0.248,7.676l1.365,2.396l-2.619,0.641c-2.592,0.635-4.717,2.489-5.696,4.973
	c-0.981,2.484-0.693,5.289,0.768,7.522l21.267,32.513c1.002,1.533,2.487,2.687,4.219,3.28l3.553,1.218l-5.467,20.846
	c-1.034,3.945,0.977,8.053,4.729,9.655l111.611,47.647c4.094,1.751,8.836-0.078,10.7-4.119l9.118-19.755l18.579,15.135
	c1.468,1.196,3.304,1.85,5.196,1.85h22.895c4.248,0,7.796-3.233,8.192-7.463l1.021-10.94l30.212-19.336
	c0.957-0.612,1.776-1.416,2.407-2.36l1.744-2.612l22.231-0.583l11.49,16.92L467.286,182.233z"/>
<g>
</g>
<g>
</g>
<g>
</g>
<g>
</g>
<g>
</g>
<g>
</g>
<g>
</g>
<g>
</g>
<g>
</g>
<g>
</g>
<g>
</g>
<g>
</g>
<g>
</g>
<g>
</g>
<g>
</g>
</svg>
