<svg width="64" height="64" viewBox="0 0 32 32" xmlns="http://www.w3.org/2000/svg" xmlns:xlink="http://www.w3.org/1999/xlink" overflow="hidden"><path d="M15.9 0.476C15.6138 0.492812 15.334 0.566945 15.077 0.694L3.932 6.01C3.35 6.287 2.927 6.814 2.782 7.442L0.054 19.373C-0.076 19.933 0.029 20.52 0.354 21 0.392 21.058 0.432 21.114 0.474 21.168L8.174 30.742C8.581 31.242 9.192 31.529 9.836 31.526L22.186 31.526C22.832 31.527 23.444 31.226 23.85 30.733L31.546 21.157C31.95 20.657 32.101 19.997 31.946 19.371L29.2 7.43C29.055 6.802 28.63 6.275 28.05 5.998L16.923 0.695C16.6024 0.536859 16.2472 0.461567 15.89 0.476Z" fill="#326CE5"/><path d="M16.002 4.542C15.618 4.569 15.327 4.898 15.347 5.282L15.347 5.47C15.365 5.683 15.397 5.894 15.439 6.103 15.5003 6.50322 15.5224 6.90848 15.505 7.313 15.467 7.446 15.391 7.566 15.287 7.658L15.272 7.94C14.867 7.974 14.465 8.036 14.069 8.126 12.403 8.502 10.886 9.366 9.715 10.611L9.475 10.441C9.343 10.481 9.201 10.466 9.08 10.401 8.75541 10.1608 8.455 9.88948 8.183 9.591 8.04637 9.42775 7.90046 9.27249 7.746 9.126L7.598 9.008C7.466 8.902 7.304 8.841 7.135 8.833 6.93043 8.82215 6.73303 8.90988 6.604 9.069 6.378 9.386 6.452 9.825 6.768 10.052L6.906 10.162C7.08364 10.2802 7.26794 10.388 7.458 10.485 7.812 10.682 8.146 10.913 8.456 11.185 8.5353 11.2981 8.58137 11.4311 8.589 11.569L8.807 11.769C7.63 13.535 7.147 15.674 7.449 17.775L7.169 17.855C7.096 17.971 6.999 18.07 6.883 18.143 6.49235 18.2473 6.09246 18.3133 5.689 18.34 5.47488 18.3443 5.26119 18.361 5.049 18.39L4.872 18.43 4.852 18.43C4.48548 18.4809 4.2296 18.8192 4.28046 19.1857 4.30016 19.3277 4.36484 19.4595 4.465 19.562 4.64345 19.7419 4.90814 19.8058 5.149 19.727L5.162 19.727 5.342 19.707C5.545 19.647 5.745 19.573 5.94 19.489 6.315 19.339 6.704 19.224 7.102 19.149 7.24 19.157 7.372 19.204 7.484 19.284L7.784 19.234C8.434 21.251 9.8 22.96 11.624 24.037L11.502 24.292C11.558 24.409 11.579 24.539 11.562 24.668 11.397 25.05 11.195 25.416 10.959 25.76 10.8295 25.9306 10.71 26.1086 10.601 26.293L10.516 26.473C10.3312 26.7936 10.4413 27.2033 10.7618 27.3881 10.8841 27.4586 11.0256 27.4887 11.166 27.474 11.417 27.4458 11.6308 27.2787 11.719 27.042L11.802 26.872C11.878 26.672 11.942 26.468 11.994 26.262 12.171 25.825 12.267 25.356 12.509 25.066 12.5881 24.9916 12.6878 24.9429 12.795 24.926L12.945 24.653C14.9222 25.413 17.1101 25.4183 19.091 24.668L19.224 24.923C19.36 24.943 19.482 25.018 19.564 25.128 19.752 25.486 19.904 25.861 20.02 26.248 20.0729 26.4552 20.1377 26.6592 20.214 26.859L20.297 27.029C20.4277 27.3752 20.8142 27.5499 21.1604 27.4193 21.293 27.3692 21.4063 27.2785 21.484 27.16 21.6209 26.948 21.6271 26.677 21.5 26.459L21.413 26.279C21.304 26.0953 21.1845 25.918 21.055 25.748 20.825 25.416 20.627 25.062 20.455 24.691 20.4226 24.554 20.4471 24.4096 20.523 24.291 20.4803 24.2038 20.4433 24.1139 20.412 24.022 22.232 22.937 23.592 21.222 24.235 19.202L24.519 19.252C24.621 19.159 24.755 19.11 24.892 19.114 25.289 19.19 25.678 19.314 26.054 19.454 26.249 19.544 26.449 19.62 26.652 19.684 26.7 19.697 26.77 19.708 26.824 19.721L26.837 19.721C27.1891 19.8347 27.5668 19.6414 27.6805 19.2893 27.7245 19.1529 27.7237 19.0059 27.678 18.87 27.5956 18.6304 27.3851 18.4579 27.134 18.424L26.94 18.378C26.7278 18.349 26.5141 18.3323 26.3 18.328 25.896 18.302 25.496 18.236 25.106 18.131 24.986 18.064 24.886 17.964 24.818 17.843L24.548 17.763C24.8359 15.663 24.3427 13.5304 23.162 11.77L23.398 11.552C23.388 11.415 23.433 11.279 23.522 11.174 23.829 10.91 24.162 10.677 24.512 10.478 24.702 10.381 24.8863 10.2731 25.064 10.155L25.21 10.037C25.5244 9.84186 25.6211 9.42881 25.4259 9.11441 25.345 8.98407 25.2219 8.88544 25.077 8.835 24.8334 8.75019 24.5627 8.81281 24.381 8.996L24.233 9.114C24.0786 9.26052 23.9327 9.41578 23.796 9.579 23.532 9.881 23.24 10.156 22.923 10.402 22.7951 10.4541 22.6551 10.4693 22.519 10.446L22.266 10.626C20.806 9.096 18.839 8.146 16.731 7.956 16.731 7.856 16.718 7.706 16.716 7.659 16.603 7.581 16.524 7.462 16.498 7.327 16.4841 6.92315 16.5096 6.51892 16.574 6.12 16.617 5.91 16.647 5.7 16.666 5.487L16.666 5.287C16.686 4.903 16.396 4.574 16.011 4.547ZM15.168 9.708 14.968 13.201 14.953 13.201C14.943 13.417 14.816 13.601 14.621 13.705 14.426 13.809 14.195 13.778 14.021 13.651L11.156 11.621C12.0679 10.7253 13.2119 10.1022 14.459 9.822 14.693 9.772 14.929 9.734 15.166 9.708ZM16.836 9.708C18.341 9.895 19.742 10.571 20.826 11.632L17.988 13.649C17.813 13.789 17.573 13.817 17.37 13.721 17.167 13.625 17.037 13.421 17.034 13.197ZM10.116 12.935 12.736 15.273 12.736 15.288C12.899 15.43 12.97 15.651 12.922 15.862 12.874 16.073 12.712 16.24 12.505 16.297L12.505 16.307 9.143 17.274C8.97664 15.7593 9.31933 14.2323 10.117 12.934ZM21.869 12.935C22.665 14.23 23.017 15.749 22.871 17.262L19.504 16.292 19.504 16.279C19.294 16.222 19.134 16.055 19.087 15.844 19.04 15.633 19.11 15.414 19.273 15.27L21.873 12.943ZM15.465 15.455 16.537 15.455 17.192 16.287 16.954 17.327 15.991 17.79 15.026 17.327 14.799 16.287ZM18.899 18.293C18.944 18.288 18.999 18.288 19.034 18.293L22.501 18.878C22.001 20.318 21.014 21.548 19.726 22.371L18.386 19.127C18.259 18.8269 18.3993 18.4807 18.6993 18.3537 18.7615 18.3274 18.8276 18.3119 18.895 18.308ZM13.076 18.308C13.272 18.311 13.453 18.412 13.56 18.576 13.667 18.74 13.684 18.946 13.607 19.126L13.607 19.139 12.275 22.357C11 21.54 10.032 20.325 9.517 18.9L12.954 18.317C12.992 18.313 13.031 18.313 13.07 18.317ZM15.98 19.708C16.2028 19.701 16.4106 19.8201 16.517 20.016L16.53 20.016 18.224 23.073 17.547 23.273C16.301 23.558 15 23.491 13.789 23.079L15.489 20.022C15.592 19.842 15.782 19.732 15.989 19.727Z" stroke="#FFFFFF" stroke-width="0.055" fill="#FFFFFF"/></svg>